<?xml version="1.0" encoding="UTF-8"?>
<svg id="_图层_2" data-name="图层 2" xmlns="http://www.w3.org/2000/svg" xmlns:xlink="http://www.w3.org/1999/xlink" viewBox="0 0 524.4 390.24">
  <defs>
    <style>
      .cls-1 {
        fill: url(#_未命名的渐变_326);
      }
    </style>
    <linearGradient id="_未命名的渐变_326" data-name="未命名的渐变 326" x1="87.78" y1="14.04" x2="436.11" y2="362.37" gradientUnits="userSpaceOnUse">
      <stop offset="0" stop-color="#fff700"/>
      <stop offset="1" stop-color="#ff2700"/>
    </linearGradient>
  </defs>
  <g id="_图层_1-2" data-name="图层 1">
    <path class="cls-1" d="M487.44,75.12c-19.5-4.41-38.84,4.02-49.27,19.46-10.92,16.18-11.27,37.09-.68,53.56-2.7,3.49-11.96,21.93-34.91,38.35-20.76,14.86-54.56,10.87-68.42-10.57-20.54-31.76-45.92-72.34-48.19-82.27,18.06-11.15,28.15-31.32,24.71-52.1-3-18.07-15.6-33.18-32.86-38.98-24.99-8.4-50.64,4.6-60.86,27.88-10.1,23.02-.59,50.16,21.69,63.23-9.91,18.18-29.05,51.85-44.73,79.29-12.91,22.59-51.87,32.06-71.94,15.51-14.38-11.86-22.2-24.12-35.45-40.17,9.67-15.54,10.85-33.83,1.81-49.97-7.48-13.35-22.12-23.81-39.06-24.39-16.39-.56-30.65,6.82-39.64,18.95C.16,105.72-2.37,121.41,2.24,136.76c5.69,18.93,22.2,32.13,42.17,33.57l48.72,188.96c4.5,17.47,18.29,30.91,37.29,30.91l112.63.02v-49.1l-37.75,8.5c-17.58,3.96-31.9-14.22-23.93-30.38,18.11-36.72,44.81-90.75,63.07-127.67,8.13-16.45,31.69-16.16,39.43.48l59.37,127.75c7.51,16.16-6.83,33.9-24.21,29.93l-37.69-8.6v49.1l111.24.02c16.29-.4,28.41-9.15,35.71-23.66l51.45-196.47c20.16-.94,36.2-14.32,42.33-33.4,8.51-26.48-7.13-55.36-34.63-61.59Z"/>
  </g>
</svg>